HIERARCHY
ROOT root
{
	OFFSET 0.000000 0.000000 0.000000
	CHANNELS 6 Xposition Yposition Zposition Zrotation Yrotation Xrotation
	JOINT lhip
	{
		OFFSET 0.058581 -0.082280 -0.017664
		CHANNELS 3 Zrotation Yrotation Xrotation
		JOINT lknee
		{
			OFFSET 0.043451 -0.386469 0.008037
			CHANNELS 3 Zrotation Yrotation Xrotation
			JOINT lankle
			{
				OFFSET -0.014790 -0.426874 -0.037428
				CHANNELS 3 Zrotation Yrotation Xrotation
				JOINT ltoe
				{
					OFFSET 0.041054 -0.060286 0.122042
					CHANNELS 3 Zrotation Yrotation Xrotation
					End Site
					{
						OFFSET 0.000000 0.000000 0.000000
					}
				}
			}
		}
	}
	JOINT rhip
	{
		OFFSET -0.060310 -0.090513 -0.013543
		CHANNELS 3 Zrotation Yrotation Xrotation
		JOINT rknee
		{
			OFFSET -0.043257 -0.383688 -0.004843
			CHANNELS 3 Zrotation Yrotation Xrotation
			JOINT rankle
			{
				OFFSET 0.019056 -0.420046 -0.034562
				CHANNELS 3 Zrotation Yrotation Xrotation
				JOINT rtoe
				{
					OFFSET -0.034840 -0.062106 0.130323
					CHANNELS 3 Zrotation Yrotation Xrotation
					End Site
					{
						OFFSET 0.000000 0.000000 0.000000
					}
				}
			}
		}
	}
	JOINT lowerback
	{
		OFFSET 0.004439 0.124404 -0.038385
		CHANNELS 3 Zrotation Yrotation Xrotation
		JOINT upperback
		{
			OFFSET 0.004488 0.137956 0.026820
			CHANNELS 3 Zrotation Yrotation Xrotation
			JOINT chest
			{
				OFFSET -0.002265 0.056032 0.002855
				CHANNELS 3 Zrotation Yrotation Xrotation
				JOINT lowerneck
				{
					OFFSET -0.013390 0.211636 -0.033468
					CHANNELS 3 Zrotation Yrotation Xrotation
					JOINT upperneck
					{
						OFFSET 0.010113 0.088937 0.050410
						CHANNELS 3 Zrotation Yrotation Xrotation
						End Site
						{
							OFFSET 0.000000 0.000000 0.000000
						}
					}
				}
				JOINT lclavicle
				{
					OFFSET 0.071702 0.114000 -0.018898
					CHANNELS 3 Zrotation Yrotation Xrotation
					JOINT lshoulder
					{
						OFFSET 0.122921 0.045205 -0.019046
						CHANNELS 3 Zrotation Yrotation Xrotation
						JOINT lelbow
						{
							OFFSET 0.255332 -0.015649 -0.022946
							CHANNELS 3 Zrotation Yrotation Xrotation
							JOINT lwrist
							{
								OFFSET 0.265709 0.012698 -0.007375
								CHANNELS 3 Zrotation Yrotation Xrotation
								End Site
								{
									OFFSET 0.000000 0.000000 0.000000
								}
							}
						}
					}
				}
				JOINT rclavicle
				{
					OFFSET -0.082954 0.112472 -0.023707
					CHANNELS 3 Zrotation Yrotation Xrotation
					JOINT rshoulder
					{
						OFFSET -0.113228 0.046853 -0.008472
						CHANNELS 3 Zrotation Yrotation Xrotation
						JOINT relbow
						{
							OFFSET -0.260127 -0.014369 -0.031269
							CHANNELS 3 Zrotation Yrotation Xrotation
							JOINT rwrist
							{
								OFFSET -0.269108 0.006794 -0.006027
								CHANNELS 3 Zrotation Yrotation Xrotation
								End Site
								{
									OFFSET 0.000000 0.000000 0.000000
								}
							}
						}
					}
				}
			}
		}
	}
}
MOTION
Frames: 7
Frame Time: 0.033333
-0.432340 0.312415 0.982296 88.258371 0.594070 88.033501 0.070854 -0.316274 -7.111117 -4.163570 -4.975107 14.286008 6.388870 7.260203 -9.958166 0.000000 -0.000000 0.000000 -2.143493 -4.570488 -5.747314 0.408355 0.270383 17.253340 1.659692 -5.519791 -15.903664 0.000000 -0.000000 0.000000 -0.642451 2.350472 5.777444 2.487556 -4.411295 -1.356508 0.451358 -2.449722 1.814825 1.051207 6.298415 9.457436 -0.541961 1.648172 12.859404 -19.513238 0.399968 0.382178 -63.240277 -12.857532 13.474903 -0.411112 -20.058426 20.722320 -8.733391 4.075429 -1.615506 19.198924 0.839832 -0.457509 63.574268 10.226243 13.351022 -5.003513 18.206104 -1.913972 11.908790 1.987893 -15.192348 
-0.433032 0.310479 0.982086 88.626456 0.580616 88.007526 0.188095 -0.558265 -7.159270 -4.281486 -5.290581 14.230045 6.139301 7.525711 -9.838368 0.000000 -0.000000 0.000000 -2.099913 -4.708033 -5.574109 0.574284 0.414084 17.024704 1.776191 -5.761449 -15.986013 0.000000 -0.000000 0.000000 -0.346986 2.392700 5.592776 2.280715 -4.218502 -1.179282 0.465671 -2.419146 2.059691 1.306842 7.304353 10.196005 -0.635972 2.819121 13.954429 -19.383859 -0.050542 0.493036 -63.245187 -13.307346 13.461480 -0.191108 -20.535996 20.227449 -8.449552 3.621645 -2.176200 19.165987 0.915707 -0.157652 63.600612 10.761303 13.642190 -5.183776 18.510427 -2.087051 11.693928 2.075370 -15.068184 
-0.433063 0.308807 0.982401 88.964894 0.412673 88.056888 0.134649 -0.633591 -7.204329 -4.343655 -5.471494 14.153528 6.063096 7.446012 -9.724687 0.000000 -0.000000 0.000000 -2.262782 -4.913440 -5.486260 0.672066 0.179069 16.900880 1.794366 -5.681054 -15.900653 0.000000 -0.000000 0.000000 -0.230467 2.364154 5.724318 2.172077 -4.115984 -1.492163 0.426881 -2.251874 2.041571 1.354629 8.016295 11.205081 -0.676249 3.820681 14.547318 -19.297559 0.155704 0.534524 -63.258234 -13.414153 13.459960 -0.191875 -21.348923 20.299587 -8.487037 3.561413 -2.439153 19.108328 0.775070 -0.005246 63.601382 10.855994 13.763573 -5.051507 18.617499 -1.873307 11.746741 2.209561 -14.996370 
-0.432873 0.306716 0.982623 89.029537 0.305341 88.088774 0.190407 -0.463564 -7.178365 -4.427705 -5.559972 14.024772 6.108447 7.420403 -9.635119 0.000000 -0.000000 0.000000 -2.256434 -5.113936 -5.381797 0.614673 0.228076 16.698912 1.808658 -5.460156 -15.889722 0.000000 -0.000000 0.000000 -0.057846 2.559404 5.665947 2.072349 -3.840904 -1.346788 0.360463 -2.111749 1.906386 1.359687 8.497096 12.037904 -0.644692 4.372449 14.899298 -19.305451 0.190832 0.522970 -63.210771 -13.553494 13.434265 -0.190667 -21.990384 20.368754 -8.531119 3.746869 -2.542665 19.057200 0.863160 0.231397 63.526183 11.035899 13.742227 -5.098179 18.431156 -1.725410 11.902660 1.981919 -14.656690 
-0.433347 0.305817 0.982628 89.234168 0.250628 88.157230 0.131534 -0.599960 -7.337501 -4.352961 -5.621250 14.102238 6.131397 7.435618 -9.596265 0.000000 -0.000000 0.000000 -2.256116 -5.077605 -5.444526 0.628533 0.036208 16.691328 1.775871 -5.575226 -15.922422 0.000000 -0.000000 0.000000 0.071178 2.586399 5.665208 2.042788 -3.720064 -1.332049 0.288511 -2.084630 1.939220 1.391998 8.428420 12.328139 -0.710935 4.303224 15.154336 -19.266514 0.160190 0.565904 -63.268805 -13.670389 13.504568 -0.103404 -22.272546 20.264939 -8.470865 3.520002 -2.638399 18.965965 0.998185 0.276870 63.496473 11.171277 13.732516 -5.016269 18.103500 -1.810935 11.799722 1.973967 -14.659004 
-0.432283 0.304287 0.982751 89.076633 0.081394 88.143427 0.066862 -0.294209 -7.010619 -4.366539 -5.758979 13.651553 6.116515 7.390813 -9.460710 0.000000 -0.000000 0.000000 -2.379626 -5.136183 -5.288160 0.647431 0.032417 16.551719 1.886760 -5.406390 -15.912436 0.000000 -0.000000 0.000000 -0.019673 2.872698 5.349229 1.991047 -3.473236 -0.893751 0.334556 -1.993817 1.874902 1.404010 8.502710 12.935359 -0.730087 4.414966 15.196465 -19.230559 0.015015 0.623000 -63.431605 -13.707585 13.540122 -0.026196 -22.302523 20.190403 -8.589504 3.596830 -2.678748 18.900864 1.129799 0.475267 63.427229 11.337113 13.558982 -5.157046 17.604723 -1.953645 12.013155 1.879134 -14.502416 
-0.432176 0.303050 0.982971 89.362869 0.068053 88.127750 0.107007 -0.253245 -7.087327 -4.379828 -5.923534 13.816385 6.026210 7.256011 -9.512944 0.000000 -0.000000 0.000000 -2.361171 -5.203263 -5.023006 0.673337 0.001607 16.190319 1.762527 -5.382185 -15.953513 0.000000 -0.000000 0.000000 0.106510 2.862300 5.403272 1.985467 -3.456117 -0.800492 0.318310 -1.973977 1.926013 1.276599 8.584294 13.255928 -0.857119 4.487774 15.385163 -19.311532 0.006706 0.601773 -63.485810 -13.763625 13.584983 -0.055077 -22.207180 20.316691 -8.584889 3.666653 -2.522616 18.863831 1.240584 0.455093 63.297547 11.534962 13.439905 -5.115640 16.994786 -2.050375 11.940681 1.774708 -14.349915 
